@startuml

Interface HasNameInterface {
    +getName($language: LanguageInterface): NameInterface
    +getNames(): NameCollectionInterface
    +appendName($name: NameInterface): void
    +appendNames($names: NameCollectionInterface): void
    +setName($name: NameInterface): void
    +removeNameByLanguage($language: LanguageInterface): NameInterface
    +removeNamesByLanguages($languages: LanguageCollectionInterface): NameCollectionInterface
    +removeName($name: NameInterface): boolean
    +removeNames($names: NameCollectionInterface): boolean
}

interface UniversityCollectionInterface {
}

interface UniversityInformationInterface {
    +getNames(): UniversityNameCollectionInterface
    +getInstructors(): InstructorCollectionInterface
    +appendInstructor($instructor: InstructorInformationInterface): void
    +appendInstructors($instructors: InstructorCollectionInterface): void
}

interface Collection {
}

interface UniversityNameInterface {
}

interface UniversityNameCollectionInterface {
}

interface NameInterface {
    +__construct($name: string, $language: LanguageInterface)
    +getName(): string
    +setName($name: string): void
    +getLanguage(): LanguageInterface
    +__toString(): string
}

interface NameCollectionInterface {
    +getByLanguage($language: LanguageInterface): NameInterface
    +getByLanguages($languages: LanguageCollectionInterface): NameCollectionInterface
    +setName($name: NameInterface): void
    +setNames($names: NameCollectionInterface): void
    +removeByLanguage($language: LanguageInterface): boolean
    +removeByLanguages($languages: LanguageCollectionInterface): boolean
}

UniversityInformationInterface <|-- HasNameInterface

Collection <|-- UniversityCollectionInterface
UniversityInformationInterface <--o UniversityCollectionInterface

UniversityNameInterface <-- UniversityInformationInterface
UniversityNameCollectionInterface <-- UniversityInformationInterface

NameInterface <|-- UniversityNameInterface

UniversityNameInterface <--o UniversityNameCollectionInterface
NameCollectionInterface <|-- UniversityNameCollectionInterface

NameInterface <--o NameCollectionInterface
Collection <|-- NameCollectionInterface
@enduml